# xmcd
#
# Track frame offsets: 
#        150
#        28641
#        42991
#        78253
#        98323
#        125331
#        208436
#        244318
#        258968
#
# Disc length: 3532 seconds
#
# Revision: 0
# Processed by: cddbd v1.5.2PL0 Copyright (c) Steve Scherf et al.
# Submitted via: ExactAudioCopy v1.3
#
DISCID=710dca09
DTITLE=Buddy Guy and Junior Wells - Live at Biddy Mulligan's 1982
DYEAR=1982
DGENRE=Chicago Blues
TTITLE0=Crosscut Saw
TTITLE1=Instrumental
TTITLE2=One Room Country Shack
TTITLE3=Dust My Broom
TTITLE4=Worry, Worry
TTITLE5=Everything's Gonna Be Alright Jam
TTITLE6=Love Her With A Feeling
TTITLE7=The Train I Ride
TTITLE8=Instrumental Outro
EXTD=
EXTT0=
EXTT1=
EXTT2=
EXTT3=
EXTT4=
EXTT5=
EXTT6=
EXTT7=
EXTT8=
PLAYORDER=
